<svg xmlns="http://www.w3.org/2000/svg" version="1.1" width="24" height="24"><defs><clipPath clipPathUnits="userSpaceOnUse" id="a"><path d="M 9.8,48 C 5.6,47 2,44 0.69,40 0.07,38 0.1,39 0.1,24 0.1,11 0.1,11 0.27,9.7 0.75,7.2 1.7,5.3 3.6,3.5 5.3,1.8 6.9,0.91 9.4,0.29 10,0.15 11,0.14 23,0.11 33,0.08 37,0.1 38,0.17 43,0.75 47,4.3 48,9.4 V 10 23 c 0,14 0,15 0,16 -1,3 -2,5 -5,7 -1,1 -2,1 -4,2 H 38 24 C 13,48 10,48 9.8,48 Z" fill="none" fill-opacity="1" stroke="#000" stroke-width="2" stroke-miterlimit="4" stroke-dasharray="none" stroke-opacity=".08"/></clipPath><clipPath id="b" clipPathUnits="userSpaceOnUse"><path d="M 9.8,48 C 5.6,47 2,44 0.69,40 0.07,38 0.1,39 0.1,24 0.1,11 0.1,11 0.27,9.7 0.75,7.2 1.7,5.3 3.6,3.5 5.3,1.8 6.9,0.91 9.4,0.29 10,0.15 11,0.14 23,0.11 33,0.08 37,0.1 38,0.17 43,0.75 47,4.3 48,9.4 V 10 23 c 0,14 0,15 0,16 -1,3 -2,5 -5,7 -1,1 -2,1 -4,2 H 38 24 C 13,48 10,48 9.8,48 Z" fill="none" fill-opacity="1" stroke="#000" stroke-width="2" stroke-miterlimit="4" stroke-dasharray="none" stroke-opacity=".08"/></clipPath></defs><path d="m 17,36 c -2,0 -4,-2 -5,-4 0,-1 0,0 0,-8 0,-6 0,-6 0,-7 0,-1 1,-2 2,-3 1,-1 1,-2 3,-2 0,0 1,0 7,0 5,0 7,0 7,0 3,0 5,2 5,5 v 0 7 c 0,7 0,7 0,8 0,1 -1,2 -2,3 -1,1 -1,1 -2,1 h -1 -7 c -5,0 -7,0 -7,0 z" fill="#fff" fill-opacity="1" stroke="none" stroke-width=".95" stroke-miterlimit="4" stroke-dasharray="none" stroke-opacity=".08" transform="translate(-12 -12)" display="inline" opacity="1"/><g display="inline" fill-opacity="1" stroke="#000" stroke-width="4" stroke-miterlimit="4" stroke-dasharray="none" stroke-opacity=".08"><path transform="scale(.5)" clip-path="url(#a)" d="M 9.8,48 C 5.6,47 2,44 0.69,40 0.07,38 0.1,39 0.1,24 0.1,11 0.1,11 0.27,9.7 0.75,7.2 1.7,5.3 3.6,3.5 5.3,1.8 6.9,0.91 9.4,0.29 10,0.15 11,0.14 23,0.11 33,0.08 37,0.1 38,0.17 43,0.75 47,4.3 48,9.4 V 10 23 c 0,14 0,15 0,16 -1,3 -2,5 -5,7 -1,1 -2,1 -4,2 H 38 24 C 13,48 10,48 9.8,48 Z" fill="none"/><path d="M 9.8,48 C 5.6,47 2,44 0.69,40 0.07,38 0.1,39 0.1,24 0.1,11 0.1,11 0.27,9.7 0.75,7.2 1.7,5.3 3.6,3.5 5.3,1.8 6.9,0.91 9.4,0.29 10,0.15 11,0.14 23,0.11 33,0.08 37,0.1 38,0.17 43,0.75 47,4.3 48,9.4 V 10 23 c 0,14 0,15 0,16 -1,3 -2,5 -5,7 -1,1 -2,1 -4,2 H 38 24 C 13,48 10,48 9.8,48 Z" clip-path="url(#b)" transform="scale(.5)" display="inline" fill="#fcc718"/></g><g display="inline" fill="none" fill-opacity="1" stroke="#000" stroke-width="4" stroke-miterlimit="4" stroke-dasharray="none" stroke-opacity=".08"><path d="M 9.8,48 C 5.6,47 2,44 0.69,40 0.07,38 0.1,39 0.1,24 0.1,11 0.1,11 0.27,9.7 0.75,7.2 1.7,5.3 3.6,3.5 5.3,1.8 6.9,0.91 9.4,0.29 10,0.15 11,0.14 23,0.11 33,0.08 37,0.1 38,0.17 43,0.75 47,4.3 48,9.4 V 10 23 c 0,14 0,15 0,16 -1,3 -2,5 -5,7 -1,1 -2,1 -4,2 H 38 24 C 13,48 10,48 9.8,48 Z" clip-path="url(#a)" transform="scale(.5)"/><path transform="scale(.5)" clip-path="url(#b)" d="M 9.8,48 C 5.6,47 2,44 0.69,40 0.07,38 0.1,39 0.1,24 0.1,11 0.1,11 0.27,9.7 0.75,7.2 1.7,5.3 3.6,3.5 5.3,1.8 6.9,0.91 9.4,0.29 10,0.15 11,0.14 23,0.11 33,0.08 37,0.1 38,0.17 43,0.75 47,4.3 48,9.4 V 10 23 c 0,14 0,15 0,16 -1,3 -2,5 -5,7 -1,1 -2,1 -4,2 H 38 24 C 13,48 10,48 9.8,48 Z" display="inline"/></g><rect width="13" height="24" x="-3.8" y="-.1" ry="6.3" fill="none" stroke="none" stroke-width=".27" stroke-miterlimit="4" stroke-dasharray="none" stroke-opacity=".64"/><g display="inline" stroke="#000" stroke-linecap="round" stroke-miterlimit="4" stroke-dasharray="none" stroke-opacity="1"><path d="m 30,27 -6,-9 -6,9" fill="#fcc718" fill-opacity="1" stroke-width="1.903" stroke-linejoin="miter" transform="translate(-12 -12)"/><path d="m 31,27 a 6.5,3 0 0 1 -7,3 6.5,3 0 0 1 -6,-3" opacity="1" fill="#000" fill-opacity="1" stroke-width="1.13" stroke-linejoin="round" transform="translate(-12 -12)"/><path d="M 19,27 H 30" fill="#1a1a1a" stroke-width="1.29" stroke-linejoin="miter" transform="translate(-12 -12)"/></g></svg>