<svg viewBox="0 0 48 48" xmlns="http://www.w3.org/2000/svg"><defs><linearGradient id="a" x1="25" x2="25" y1="48" y2="-26" gradientTransform="translate(0 -.21)" gradientUnits="userSpaceOnUse"><stop stop-color="#818181" offset="0"/><stop stop-color="#818181" stop-opacity="0" offset="1"/></linearGradient><clipPath id="b"><path d="M9.8 48C5.6 47 2 44 .69 40 .07 38 .1 39 .1 24c0-13 0-13 .17-14.3C.75 7.2 1.7 5.3 3.6 3.5 5.3 1.8 6.9.91 9.4.29 10 .15 11 .14 23 .11 33 .08 37 .1 38 .17c5 .58 9 4.13 10 9.23V39c-1 3-2 5-5 7-1 1-2 1-4 2H9.8z" fill="none" stroke="#000" stroke-opacity=".08" stroke-width="2"/></clipPath></defs><path d="M9.7 48.1c-4.2-1-7.8-4-9.11-8-.62-2-.59-1-.59-16 0-13 0-13 .17-14.3C.65 7.3 1.6 5.4 3.5 3.6 5.2 1.9 6.8 1.01 9.3.39 9.9.25 10.9.24 22.9.21c10-.03 14-.01 15 .06 5 .58 9 4.13 10 9.23v29.6c-1 3-2 5-5 7-1 1-2 1-4 2H9.7z" fill="#fff"/><path d="M9.8 48C5.6 47 2 44 .69 40 .07 38 .1 39 .1 24c0-13 0-13 .17-14.5C.75 7 1.7 5.1 3.6 3.3 5.3 1.6 6.9.69 9.4.08 10-.06 11-.07 23-.1c10 0 14 0 15 .1 5 .58 9 4.1 10 9.2V39c-1 3-2 5-5 7-1 1-2 1-4 2H9.8z" fill="url(#a)" transform="translate(-.1 .1)"/><path transform="translate(-.1 -.1)" d="M9.8 48C5.6 47 2 44 .69 40 .07 38 .1 39 .1 24c0-13 0-13 .17-14.3C.75 7.2 1.7 5.3 3.6 3.5 5.3 1.8 6.9.91 9.4.29 10 .15 11 .14 23 .11 33 .08 37 .1 38 .17c5 .58 9 4.13 10 9.23V39c-1 3-2 5-5 7-1 1-2 1-4 2H9.8z" clip-path="url(#b)" fill="none" stroke="#000" stroke-opacity=".08" stroke-width="4"/><rect x="8.1" y="12" width="13" height="24" ry="6.3" fill="none"/><g stroke="#fff" stroke-linecap="round"><path d="M37 30L24 13 11 30" fill="none" stroke-width="2.92"/><path d="M37 30a13 5.9 0 01-13 6 13 5.9 0 01-13-6" fill="#fff" stroke-linejoin="round" stroke-width="2.26"/><path d="M13 29h22" fill="none" stroke-width="2.58"/></g></svg>